<?xml version="1.0" encoding="UTF-8"?>
<svg version="1.1" xmlns="http://www.w3.org/2000/svg" width="512" height="512">
<path d="M0 0 C22.68465303 18.88932987 37.73832525 44.69074225 40.99829102 74.27416992 C41.5588588 81.59666505 41.81457502 88.93365015 41.99829102 96.27416992 C42.79750977 95.87584961 43.59672852 95.4775293 44.42016602 95.06713867 C65.44468271 84.92503027 88.25271501 83.38747456 110.50610352 90.37573242 C122.5435879 94.78663095 132.40955559 100.7825782 141.99829102 109.27416992 C142.63508789 109.82717773 143.27188477 110.38018555 143.92797852 110.94995117 C159.53546269 125.44261505 168.12081721 147.26467769 169.20141602 168.21166992 C169.38653716 178.12230589 169.53436678 190.20201839 164.99829102 199.27416992 C166.23579102 199.45979492 166.23579102 199.45979492 167.49829102 199.64916992 C181.17697591 202.09179222 193.65205585 207.8836111 203.99829102 217.27416992 C204.68149414 217.87745117 205.36469727 218.48073242 206.06860352 219.10229492 C214.37971242 226.87618386 219.92897398 236.7207763 223.99829102 247.27416992 C224.31926758 248.10432617 224.64024414 248.93448242 224.97094727 249.78979492 C230.68379752 267.96463015 227.92646176 289.23036565 219.43579102 305.96166992 C215.38778977 313.43132301 210.06222923 319.38374801 203.99829102 325.27416992 C203.36922852 325.88905273 202.74016602 326.50393555 202.09204102 327.13745117 C182.42011975 345.09271893 157.2515118 344.57515454 132.31103516 344.53295898 C129.6141259 344.5356724 126.91722763 344.53916371 124.22032166 344.5435791 C117.68262386 344.55242795 111.14497223 344.55057124 104.60727269 344.54475382 C99.28879583 344.54021909 93.97033181 344.53963222 88.65185356 344.54180145 C87.89208156 344.54210792 87.13230956 344.54241438 86.34951417 344.54273014 C84.80556961 344.54336965 83.26162506 344.54401808 81.71768051 344.54467532 C67.27206517 344.55036551 52.8264753 344.54384157 38.38086414 344.53307459 C26.01415058 344.52414208 13.64747459 344.52569119 1.28076172 344.53491211 C-13.11505534 344.5456411 -27.51085013 344.54981441 -41.90667063 344.54368758 C-43.44493234 344.54305055 -44.98319405 344.54242181 -46.52145576 344.54180145 C-47.65643665 344.54133863 -47.65643665 344.54133863 -48.81434644 344.54086645 C-54.11943548 344.53914725 -59.42451026 344.54203785 -64.72959709 344.54676056 C-71.20482785 344.55239878 -77.68001018 344.55079168 -84.15523546 344.54019907 C-87.4523313 344.53498135 -90.74933105 344.53391446 -94.04642868 344.53949738 C-124.61229791 344.58646017 -151.59511274 340.94818561 -174.4309082 318.8684082 C-191.32851195 301.71867981 -199.26273922 279.25886595 -199.25048828 255.39648438 C-198.90033097 230.47485628 -187.39706497 208.86342821 -169.82983398 191.72729492 C-161.69799857 184.67371392 -149.05207639 175.27416992 -138.00170898 175.27416992 C-140.27096911 172.15393725 -142.66977858 169.65383107 -145.62670898 167.21166992 C-167.76867368 148.11525427 -178.17011807 118.87689117 -180.29077148 90.39135742 C-180.94948205 62.66563085 -171.47730151 36.60644494 -154.00170898 15.27416992 C-153.31592773 14.42338867 -152.63014648 13.57260742 -151.92358398 12.69604492 C-114.5761231 -31.29096457 -44.24595807 -35.69893398 0 0 Z " fill="#80CCF5" transform="translate(275.001708984375,138.725830078125)"/>
<path d="M0 0 C23.72284702 19.75382573 38.2083743 46.2975051 41.27954102 77.09448242 C42.72524294 94.57844009 42.72524294 94.57844009 39.07641602 100.27416992 C36.48757078 102.33238228 33.9559276 103.8036596 30.99829102 105.27416992 C20.06125706 112.5030999 11.63742055 123.49742427 5.99829102 135.27416992 C5.15266602 134.93643555 4.30704102 134.59870117 3.43579102 134.25073242 C2.30141602 133.8047168 1.16704102 133.35870117 -0.00170898 132.89916992 C-1.11545898 132.45831055 -2.22920898 132.01745117 -3.37670898 131.56323242 C-11.25988541 128.7599477 -17.98888801 127.934302 -26.31420898 127.96166992 C-27.28293945 127.94555664 -28.25166992 127.92944336 -29.24975586 127.9128418 C-46.19248098 127.90153911 -62.03008332 135.41637905 -74.00170898 147.27416992 C-80.52100232 154.81387439 -86.96354144 164.36445877 -89.00170898 174.27416992 C-89.78030273 174.12979492 -90.55889648 173.98541992 -91.36108398 173.83666992 C-104.12533551 171.71909824 -118.38779581 170.43416338 -131.02905273 173.83666992 C-133.63634656 174.41492123 -135.32410673 174.69426294 -138.00170898 174.27416992 C-140.44614916 172.45053995 -142.51877951 170.69571712 -144.68920898 168.58666992 C-145.30570313 167.9957959 -145.92219727 167.40492188 -146.55737305 166.79614258 C-168.30468482 145.50684751 -179.62691563 117.05930158 -180.37670898 86.77416992 C-179.68955456 60.11830467 -170.88266819 35.88058219 -154.00170898 15.27416992 C-153.31592773 14.42338867 -152.63014648 13.57260742 -151.92358398 12.69604492 C-114.5761231 -31.29096457 -44.24595807 -35.69893398 0 0 Z " fill="#F8AE00" transform="translate(275.001708984375,138.725830078125)"/>
<path d="M0 0 C2.57559085 1.93169314 4.06262561 3.52403578 4.5859375 6.7734375 C4.59882812 7.52882813 4.61171875 8.28421875 4.625 9.0625 C4.65335938 9.81273437 4.68171875 10.56296875 4.7109375 11.3359375 C4.02104112 14.85557835 2.84369188 16.14705106 0.25 18.6875 C-3.30700494 21.01664472 -7.01276838 23.03885785 -10.75 25.0625 C-12.83389708 26.20861099 -14.91723628 27.35573696 -17 28.50390625 C-17.99644531 29.05062988 -18.99289063 29.59735352 -20.01953125 30.16064453 C-23.32934905 32.01146718 -26.53284946 33.99338442 -29.75 36 C-33.92583051 38.43287517 -36.83497211 39.76880613 -41.75 38.6875 C-47.28846154 35.61057692 -47.28846154 35.61057692 -48.75 32.6875 C-49.0234375 30.69921875 -49.0234375 30.69921875 -49.125 28.375 C-49.17398438 27.61574219 -49.22296875 26.85648437 -49.2734375 26.07421875 C-48.36556185 21.93457679 -45.40660673 19.80253258 -41.98681641 17.50073242 C-39.97244846 16.26824717 -37.93286718 15.09583863 -35.875 13.9375 C-34.36413182 13.06979613 -32.85372484 12.20128878 -31.34375 11.33203125 C-30.58191406 10.89584473 -29.82007812 10.4596582 -29.03515625 10.01025391 C-24.81067893 7.56493146 -20.64762693 5.01640425 -16.48486328 2.46777344 C-10.94306712 -0.89023801 -6.20677634 -2.96232507 0 0 Z " fill="#FDD83A" transform="translate(74.75,295.3125)"/>
<path d="M0 0 C2.77262674 1.70623184 3.71852362 2.95423707 4.5625 6.08984375 C5.38076266 11.21250894 5.0808344 13.67511639 2 18 C-0.55273438 19.84936523 -0.55273438 19.84936523 -3.59375 21.55859375 C-4.7075 22.19216797 -5.82125 22.82574219 -6.96875 23.47851562 C-8.1457035 24.13174439 -9.32278743 24.78473823 -10.5 25.4375 C-11.634375 26.08009766 -12.76875 26.72269531 -13.9375 27.38476562 C-17.28228152 29.27387675 -20.63977071 31.13853846 -24 33 C-25.04373779 33.589021 -26.08747559 34.17804199 -27.1628418 34.78491211 C-28.13390869 35.32768799 -29.10497559 35.87046387 -30.10546875 36.4296875 C-30.96035889 36.91034668 -31.81524902 37.39100586 -32.69604492 37.88623047 C-36.06763407 39.51611175 -38.34432307 39.78847934 -42 39 C-45.20613573 37.10006771 -47.39902918 35.66525993 -48.69921875 32.0625 C-49.27281785 28.80593737 -49.17429055 26.52287165 -48.125 23.375 C-42.16145663 16.70986329 -33.04171917 12.59059212 -25.37744141 8.19360352 C-23.6045407 7.175754 -21.8353526 6.15165656 -20.06640625 5.12695312 C-7.76377199 -1.95659576 -7.76377199 -1.95659576 0 0 Z " fill="#FDD83A" transform="translate(381,118)"/>
<path d="M0 0 C3.6093204 1.52400363 6.97363019 3.43734401 10.375 5.375 C11.34147461 5.91503662 12.30794922 6.45507324 13.30371094 7.01147461 C19.35128959 10.41861045 25.34035469 13.92123127 31.25 17.5625 C31.9104834 17.96710449 32.5709668 18.37170898 33.25146484 18.78857422 C36.23899065 20.6740456 38.0109697 22.01645455 40 25 C40.54531842 28.06526351 40.54325893 30.93408329 40 34 C37.81840855 36.75569447 36.12822506 38.43588747 33 40 C27.44353809 40.46268733 24.28636107 39.51013805 19.5078125 36.7109375 C18.91757294 36.37003082 18.32733337 36.02912415 17.71920776 35.67788696 C15.84592116 34.59086167 13.98583235 33.4831796 12.125 32.375 C10.88488324 31.65362489 9.64400262 30.93356127 8.40234375 30.21484375 C-9.99257953 19.5111307 -9.99257953 19.5111307 -13 15 C-13.54531842 11.93473649 -13.54325893 9.06591671 -13 6 C-9.10014893 1.07387233 -6.25244805 -0.70703958 0 0 Z " fill="#FDD83A" transform="translate(39,117)"/>
<path d="M0 0 C2.87029869 1.79393668 4.49131638 2.98263276 6 6 C6.99738446 13.80987652 3.95670333 18.61015118 0 25.1875 C-0.59288818 26.20038086 -1.18577637 27.21326172 -1.79663086 28.25683594 C-3.51496039 31.1811544 -5.25601744 34.09093514 -7 37 C-7.83610805 38.42752391 -8.6709513 39.85579023 -9.50390625 41.28515625 C-15.05320304 50.65777752 -15.05320304 50.65777752 -19 53 C-24.05803242 53.65264934 -25.99845071 53.58271959 -30.4375 51 C-33.00286271 47.99664854 -33.82635949 46.22688781 -34.1940918 42.328125 C-33.79298308 37.51683852 -31.0931607 33.58307108 -28.6875 29.5 C-28.14295166 28.54254883 -27.59840332 27.58509766 -27.03735352 26.59863281 C-25.38465759 23.71597331 -23.69951529 20.85526595 -22 18 C-21.50306641 17.16017578 -21.00613281 16.32035156 -20.49414062 15.45507812 C-19.15694807 13.21043903 -17.80429588 10.97671775 -16.4375 8.75 C-16.03297607 8.08935547 -15.62845215 7.42871094 -15.21166992 6.74804688 C-11.10422538 0.24292615 -7.41180287 -1.09226569 0 0 Z " fill="#FDD83A" transform="translate(308,46)"/>
<path d="M0 0 C5.31634032 3.60977401 7.88978198 7.67780794 10.8125 13.3125 C11.66936353 14.92121766 12.52746353 16.52927727 13.38671875 18.13671875 C13.81645996 18.9467334 14.24620117 19.75674805 14.68896484 20.59130859 C15.95435438 22.91613786 17.28059562 25.1888737 18.64453125 27.45703125 C19.06178467 28.15981201 19.47903809 28.86259277 19.90893555 29.58666992 C20.6958656 30.90569802 21.49479852 32.21766987 22.30786133 33.52075195 C25.13567541 38.33696313 25.52359623 41.57622604 25 47 C23.20636089 49.8100346 21.98119065 51.50940468 19 53 C10.3727306 53.41744852 10.3727306 53.41744852 7 51 C5.34140772 48.54315476 3.873072 46.14433303 2.4375 43.5625 C1.56274464 42.02590237 0.68773467 40.48944966 -0.1875 38.953125 C-0.64253906 38.14681641 -1.09757812 37.34050781 -1.56640625 36.50976562 C-3.03418984 33.94014449 -4.54196263 31.398095 -6.0625 28.859375 C-6.81358032 27.59565063 -6.81358032 27.59565063 -7.57983398 26.30639648 C-8.54989746 24.67471553 -9.52575365 23.04646108 -10.50805664 21.42211914 C-12.92922906 17.30564065 -14.78663049 13.88616179 -15 9 C-13.07269653 2.91377853 -13.07269653 2.91377853 -10.3125 0.5625 C-6.82186163 -0.2865742 -3.4888827 -0.88774062 0 0 Z " fill="#FDD83A" transform="translate(112,46)"/>
<path d="M0 0 C3.8066779 3.42378845 5.28457476 5.6915202 5.64697266 10.82446289 C5.67977916 12.70691678 5.68392037 14.59002124 5.6640625 16.47265625 C5.66884613 17.47332626 5.67362976 18.47399628 5.67855835 19.50498962 C5.68195111 21.61377541 5.67279253 23.72261425 5.65185547 25.83129883 C5.62505366 29.05604314 5.65163988 32.27731576 5.68359375 35.50195312 C5.68029009 37.55469517 5.67388478 39.60743505 5.6640625 41.66015625 C5.67418365 42.62172134 5.68430481 43.58328644 5.69473267 44.57398987 C5.61329328 49.2307356 5.53385703 51.3187363 2.58349609 55.08374023 C-1.50427095 58.11576476 -3.86647146 58.51335285 -9 58 C-12.47998516 55.99707521 -14.7068445 53.87946651 -16 50 C-16.10511836 48.6051682 -16.15837369 47.20603619 -16.17700195 45.80737305 C-16.18983719 44.96607346 -16.20267242 44.12477386 -16.21589661 43.25798035 C-16.22328354 42.35171402 -16.23067047 41.44544769 -16.23828125 40.51171875 C-16.246353 39.5757637 -16.25442474 38.63980865 -16.26274109 37.67549133 C-16.27657102 35.69424283 -16.28729805 33.7129706 -16.29516602 31.73168945 C-16.31237566 28.70933655 -16.35627112 25.68807861 -16.40039062 22.66601562 C-16.41051826 20.73959136 -16.41903414 18.81315782 -16.42578125 16.88671875 C-16.44328934 15.98652512 -16.46079742 15.08633148 -16.47883606 14.15885925 C-16.45975281 8.60944392 -15.75126979 5.37828318 -12 1 C-7.91068155 -1.54200876 -4.56466226 -1.30418922 0 0 Z " fill="#FDD83A" transform="translate(211,20)"/>
<path d="M0 0 C0.86462357 -0.00960754 1.72924713 -0.01921509 2.62007141 -0.02911377 C4.02472908 -0.03548859 4.02472908 -0.03548859 5.45776367 -0.04199219 C6.41970139 -0.04769226 7.3816391 -0.05339233 8.37272644 -0.05926514 C10.4112335 -0.06872231 12.44975589 -0.07525196 14.48828125 -0.07910156 C17.60273047 -0.08879559 20.71651663 -0.11980756 23.83081055 -0.15136719 C25.81062433 -0.15789835 27.79044284 -0.16314838 29.77026367 -0.16699219 C30.70062943 -0.17933899 31.63099518 -0.19168579 32.58955383 -0.20440674 C37.48448859 -0.18760029 40.85238351 -0.05900519 44.81323242 3.16113281 C47.37955759 6.5828997 47.17758293 10.00753702 46.81323242 14.16113281 C45.11040415 17.99249642 43.65552927 19.60201734 39.81323242 21.16113281 C37.65748596 21.42855835 37.65748596 21.42855835 35.30761719 21.45166016 C33.9808773 21.47079971 33.9808773 21.47079971 32.62733459 21.49032593 C31.20535011 21.4936644 31.20535011 21.4936644 29.75463867 21.49707031 C28.28268288 21.50705551 28.28268288 21.50705551 26.7809906 21.51724243 C24.70736565 21.52735923 22.6337082 21.53205975 20.56005859 21.53173828 C17.39064862 21.53611223 14.22263053 21.57244467 11.0534668 21.61035156 C9.03719551 21.61621977 7.02091762 21.62018914 5.00463867 21.62207031 C4.05867325 21.63644135 3.11270782 21.65081238 2.13807678 21.6656189 C-2.16211165 21.6358095 -4.53635522 21.56388955 -8.26123047 19.25732422 C-11.48655678 15.74614739 -11.57594682 13.04996015 -11.54614258 8.42285156 C-10.97619892 4.83592352 -8.98450709 3.29274387 -6.18676758 1.16113281 C-3.88820743 0.01185274 -2.55691017 0.02290754 0 0 Z " fill="#FDD83A" transform="translate(11.186767578125,214.8388671875)"/>
</svg>
