<?xml version="1.0" encoding="UTF-8"?>
<svg version="1.1" xmlns="http://www.w3.org/2000/svg" width="512" height="512">
<path d="M0 0 C1.36089276 1.13783667 2.71565895 2.28306482 4.0625 3.4375 C4.65160156 3.88351563 5.24070312 4.32953125 5.84765625 4.7890625 C19.91997874 15.75201077 28.51211721 34.02215263 31.0625 51.4375 C31.15662118 53.89482583 31.22066325 56.3535473 31.25 58.8125 C31.54561678 65.60390665 34.04854886 68.89278587 38.73828125 73.64453125 C41.60613777 75.88535095 41.60613777 75.88535095 45.0625 76.4375 C47.70566634 75.35137545 47.70566634 75.35137545 50.375 73.6875 C62.64978917 66.63358782 74.58258391 64.43095151 88.6328125 67.12109375 C97.4512601 69.83879947 103.84982101 74.70709776 110.0625 81.4375 C110.7225 82.13875 111.3825 82.84 112.0625 83.5625 C117.50668128 91.3885106 119.63865638 98.91229393 120.41015625 108.37109375 C121.19607387 112.06537719 121.94672021 113.31426747 125.0625 115.4375 C128.38386771 115.99091366 128.38386771 115.99091366 132.0625 115.9375 C144.30641765 116.3879501 153.97366246 120.10257525 163.0625 128.4375 C171.73056101 138.18360557 176.48551943 148.98687425 176.28125 162.13671875 C175.01615298 175.44282848 169.70855534 185.36754903 160.0625 194.4375 C148.39997789 203.63659425 136.61869967 204.88722171 122.1933136 204.81845093 C120.60304687 204.82191277 119.01278255 204.82668086 117.4225232 204.83263266 C113.0771923 204.84510067 108.73206029 204.83899143 104.38672888 204.82967401 C99.69058075 204.82286629 94.99446601 204.83337346 90.29832458 204.84161377 C81.10687388 204.8549365 71.91549678 204.85207941 62.72404323 204.84337585 C55.24922671 204.8365919 47.77443076 204.83568566 40.29961205 204.8389473 C39.23443256 204.839407 38.16925308 204.83986669 37.07179543 204.84034032 C34.907622 204.84129954 32.74344857 204.84227218 30.57927515 204.8432581 C10.2955127 204.85180825 -9.98820905 204.8419848 -30.27196483 204.825857 C-47.65390517 204.81246382 -65.03578536 204.8147744 -82.41772461 204.82861328 C-102.62273883 204.84469237 -122.82771735 204.85097417 -143.03273708 204.84177649 C-145.19033578 204.84082089 -147.3479345 204.83987778 -149.50553322 204.8389473 C-151.09770867 204.83825306 -151.09770867 204.83825306 -152.72204929 204.83754479 C-160.18017854 204.83496116 -167.63828503 204.83931255 -175.09641075 204.84638596 C-184.19685681 204.85482748 -193.2972253 204.85246569 -202.39766254 204.83654372 C-207.03559979 204.82869509 -211.67340804 204.82551068 -216.31134415 204.83549118 C-220.56718811 204.84451038 -224.822785 204.83938788 -229.07860694 204.82355852 C-230.60815993 204.82024088 -232.13773432 204.82183565 -233.66727325 204.82918589 C-246.76251637 204.88722716 -260.68151294 204.17700442 -272.375 197.6875 C-273.03693359 197.33679443 -273.69886719 196.98608887 -274.38085938 196.62475586 C-279.67803927 193.74548646 -284.51835419 190.56322164 -288.9375 186.4375 C-289.94490234 185.509375 -289.94490234 185.509375 -290.97265625 184.5625 C-302.25555505 173.083944 -307.63197597 157.29894481 -308.3125 141.4375 C-307.55159178 123.70248535 -301.02299811 107.58520407 -287.9375 95.4375 C-281.53122153 89.56161147 -275.0836843 85.48074783 -266.9375 82.4375 C-266.133125 82.12941406 -265.32875 81.82132812 -264.5 81.50390625 C-257.42072409 79.19208021 -250.31976704 78.9992655 -242.92993164 78.90332031 C-238.16846555 78.79057915 -234.72643526 78.6559006 -230.9375 75.4375 C-228.44005975 72.02484873 -228.4430062 68.02516859 -228.0625 63.9375 C-226.21443583 47.44133168 -219.35664598 32.24854628 -206.5078125 21.3828125 C-190.53021813 9.11016755 -174.57871294 5.98716122 -154.9375 7.4375 C-144.55716336 8.87276037 -135.08615524 13.60124708 -126.75 19.8125 C-122.70814554 22.14779369 -120.5761685 22.10016693 -115.9375 21.4375 C-112.59958857 18.4541053 -109.70497495 15.07847434 -106.74072266 11.73095703 C-79.89058798 -18.32043838 -32.72049282 -25.02481007 0 0 Z " fill="#DEEAFA" transform="translate(321.9375,14.5625)"/>
<path d="M0 0 C2.40781413 1.97044827 4.62356148 4.04221453 6.8125 6.25 C5.50796875 6.35957031 4.2034375 6.46914063 2.859375 6.58203125 C-22.2391793 8.79943898 -42.05363457 15.91435279 -59.1875 35.25 C-59.88875 36.343125 -60.59 37.43625 -61.3125 38.5625 C-63.61062179 41.85647457 -65.42915985 42.89699755 -69.1875 44.25 C-74.43552262 44.81124686 -77.00033988 43.4859068 -81.3125 40.5625 C-97.02527786 30.32428941 -113.38592188 26.79096718 -131.98046875 30.30078125 C-142.25356875 33.34141864 -152.35288971 38.95401917 -160.1875 46.25 C-160.785625 46.79527344 -161.38375 47.34054688 -162 47.90234375 C-171.86522984 57.96575901 -177.10017287 72.6941966 -178.31054688 86.41601562 C-178.86772297 91.70165908 -179.96893764 95.2722446 -183.98242188 98.85009766 C-186.55489937 100.4832449 -188.12798096 100.68994326 -191.15234375 100.83984375 C-192.59033325 100.92915161 -192.59033325 100.92915161 -194.05737305 101.02026367 C-195.57584839 101.10304565 -195.57584839 101.10304565 -197.125 101.1875 C-214.3519133 102.43567194 -230.00551801 107.17150851 -242.1875 120.25 C-252.08022443 132.50207711 -257.79179659 145.75653696 -257.625 161.5625 C-257.61742676 162.5721582 -257.60985352 163.58181641 -257.60205078 164.62207031 C-257.27608824 179.42600405 -251.62946265 191.23643776 -243.1875 203.25 C-260.22859608 204.25405803 -275.16530518 198.66087855 -288.0625 187.4375 C-301.01348002 174.97594655 -307.87275966 159.27321491 -308.5625 141.25 C-307.80159178 123.51498535 -301.27299811 107.39770407 -288.1875 95.25 C-281.78122153 89.37411147 -275.3336843 85.29324783 -267.1875 82.25 C-266.383125 81.94191406 -265.57875 81.63382812 -264.75 81.31640625 C-257.67072409 79.00458021 -250.56976704 78.8117655 -243.17993164 78.71582031 C-238.41846555 78.60307915 -234.97643526 78.4684006 -231.1875 75.25 C-228.69005975 71.83734873 -228.6930062 67.83766859 -228.3125 63.75 C-226.46443583 47.25383168 -219.60664598 32.06104628 -206.7578125 21.1953125 C-190.78021813 8.92266755 -174.82871294 5.79966122 -155.1875 7.25 C-144.80716336 8.68526037 -135.33615524 13.41374708 -127 19.625 C-122.95814554 21.96029369 -120.8261685 21.91266693 -116.1875 21.25 C-112.84958857 18.2666053 -109.95497495 14.89097434 -106.99072266 11.54345703 C-79.97275235 -18.69578454 -32.83216777 -25.08823159 0 0 Z " fill="#B1DBFB" transform="translate(322.1875,14.75)"/>
<path d="M0 0 C4.23266909 0.88180606 5.41985977 2.13221512 8 5.625 C8.75794896 9.55765521 8.7905271 13.44087364 8.8125 17.4375 C8.83763672 18.51193359 8.86277344 19.58636719 8.88867188 20.69335938 C8.94743295 23.33760771 8.98379376 25.98020488 9 28.625 C9.75925781 27.72136719 10.51851563 26.81773437 11.30078125 25.88671875 C12.30461555 24.69525187 13.30852578 23.50384898 14.3125 22.3125 C14.81201172 21.71759766 15.31152344 21.12269531 15.82617188 20.50976562 C16.55610352 19.64448242 16.55610352 19.64448242 17.30078125 18.76171875 C17.96847534 17.96834106 17.96847534 17.96834106 18.6496582 17.15893555 C19.095271 16.65273682 19.54088379 16.14653809 20 15.625 C20.72159302 14.80092651 20.72159302 14.80092651 21.45776367 13.96020508 C23 12.625 23 12.625 26.375 12.125 C30 12.625 30 12.625 32.9375 14.75 C35.42411562 18.21619147 35.54384287 19.44198425 35 23.625 C33.53681759 25.95713359 32.14264282 27.86484025 30.375 29.9375 C29.89369629 30.52563477 29.41239258 31.11376953 28.91650391 31.71972656 C27.29120324 33.69974124 25.64560098 35.66183501 24 37.625 C22.08609723 39.94028519 20.17669609 42.25922417 18.26806641 44.57885742 C17.01897339 46.09391027 15.76611577 47.60586824 14.50927734 49.11450195 C13.9364502 49.80374756 13.36362305 50.49299316 12.7734375 51.203125 C12.26216309 51.81575195 11.75088867 52.42837891 11.22412109 53.05957031 C8.92521909 55.99945057 8.88126218 57.96461915 8.90234375 61.6328125 C8.90556641 62.61894531 8.90878906 63.60507812 8.91210938 64.62109375 C8.92467773 66.16990234 8.92467773 66.16990234 8.9375 67.75 C8.94201172 68.79027344 8.94652344 69.83054687 8.95117188 70.90234375 C8.96298048 73.47661962 8.97944925 76.05078146 9 78.625 C13.16535062 76.99301145 17.12908076 75.12729991 21.0625 73 C21.97999023 72.54173828 21.97999023 72.54173828 22.91601562 72.07421875 C32.6539989 66.74727871 35.16240381 52.54670121 38.79101562 42.65649414 C39.55786587 40.57263093 40.34018272 38.49511996 41.125 36.41796875 C41.58132813 35.1858667 42.03765625 33.95376465 42.5078125 32.68432617 C44.02872437 29.56610845 44.99594878 28.27817975 48 26.625 C51.7241837 26.07033434 53.52678113 26.3781032 56.875 28.125 C59.35472876 31.04232795 59.36354022 32.68436732 59.26220703 36.42773438 C58.82429117 40.09742034 57.48285208 43.26520452 56 46.625 C55.71382812 47.30433594 55.42765625 47.98367188 55.1328125 48.68359375 C54.43455217 50.33614321 53.71907471 51.98140067 53 53.625 C61.08509045 49.70770515 61.08509045 49.70770515 68.875 45.25 C72.36998505 43.43260777 74.13262714 42.86834009 78 43.625 C80.9375 45.625 80.9375 45.625 83 48.625 C83.55317552 53.52455458 83.55317552 53.52455458 82 56.625 C78.97492736 59.49615505 75.60177087 61.54666723 72 63.625 C71.12085938 64.13546875 70.24171875 64.6459375 69.3359375 65.171875 C67.23966151 66.3564373 65.1324648 67.50725879 63 68.625 C63 68.955 63 69.285 63 69.625 C64.86205078 69.86283203 64.86205078 69.86283203 66.76171875 70.10546875 C68.40380245 70.34005214 70.04572148 70.57579022 71.6875 70.8125 C72.50412109 70.91369141 73.32074219 71.01488281 74.16210938 71.11914062 C79.58998247 71.93222283 82.53254065 73.06401056 86 77.625 C86.625 80.625 86.625 80.625 86 83.625 C84.0625 86.5 84.0625 86.5 81 88.625 C71.95317987 89.33922264 63.07456661 87.26998395 54.20288086 85.68579102 C52.15352371 85.32262287 50.10236941 84.97140318 48.05078125 84.62109375 C46.23574097 84.29902954 46.23574097 84.29902954 44.3840332 83.97045898 C39.398541 83.46151508 35.44965243 83.98901738 31.203125 86.69140625 C30.55472656 87.09423828 29.90632813 87.49707031 29.23828125 87.91210938 C28.58214844 88.33298828 27.92601562 88.75386719 27.25 89.1875 C20.23349772 93.625 20.23349772 93.625 18 93.625 C23.45868452 99.52304206 31.03435965 104.94199371 39.15234375 106.05859375 C42.83310639 105.84475463 46.38067181 105.28682879 50 104.625 C53.1830849 104.09360548 56.36785012 103.57361529 59.5534668 103.05761719 C61.77382378 102.69174926 63.99164944 102.31009721 66.20629883 101.91113281 C78.82587858 99.72052715 78.82587858 99.72052715 83.875 102.75 C85.67167343 105.74445572 85.94016186 108.15438771 86 111.625 C84.42098075 114.63287241 83.04478256 116.25858008 79.79467773 117.3984375 C77.12209384 118.01414864 74.45729788 118.49955475 71.75 118.9375 C70.81414062 119.10572266 69.87828125 119.27394531 68.9140625 119.44726562 C66.6119528 119.85835664 64.30823937 120.25014956 62 120.625 C62.56509277 120.93727539 63.13018555 121.24955078 63.71240234 121.57128906 C66.27303654 122.99462451 68.82396133 124.43454282 71.375 125.875 C72.26445312 126.36613281 73.15390625 126.85726562 74.0703125 127.36328125 C74.92109375 127.84667969 75.771875 128.33007812 76.6484375 128.828125 C77.43395996 129.26801758 78.21948242 129.70791016 79.02880859 130.16113281 C81.27461433 131.82893702 82.08135698 132.99869541 83 135.625 C82.82357605 138.97705511 82.56269287 141.59891301 80.9375 144.5625 C77.73168702 146.32052647 74.5185272 146.15770465 71 145.625 C67.63805776 144.27215584 64.59950317 142.49277878 61.5 140.625 C60.67757812 140.14804687 59.85515625 139.67109375 59.0078125 139.1796875 C56.99568866 138.00984806 54.99418107 136.82508336 53 135.625 C53.433125 136.69878906 53.86625 137.77257812 54.3125 138.87890625 C54.87561964 140.31486133 55.43808499 141.75107311 56 143.1875 C56.28617188 143.89197266 56.57234375 144.59644531 56.8671875 145.32226562 C58.63867728 149.89861422 59.47432972 153.63829681 59 158.625 C57.20171456 161.06553024 55.81043868 162.25899544 53.0625 163.5 C50.10774535 163.67907604 48.57440472 163.10528271 46 161.625 C42.7322793 157.34758358 40.96346799 153.08744544 39.43359375 147.98828125 C34.11704418 129.16611624 34.11704418 129.16611624 21.34790039 115.31323242 C15.43025674 112.05849967 15.43025674 112.05849967 9 110.625 C7.11811648 125.68674514 7.11811648 125.68674514 12.37744141 139.18261719 C14.32514422 141.22508744 16.33724972 143.17539968 18.41699219 145.08300781 C21.23082252 147.82393199 23.55249929 150.95019053 25.9375 154.0625 C26.38520752 154.6304126 26.83291504 155.1983252 27.29418945 155.78344727 C34.98188805 165.57450716 34.98188805 165.57450716 35.0625 170.25 C33.77614017 174.33608416 32.79257469 175.64626538 29 177.625 C25.56027093 177.65366441 23.05758279 177.48900599 20.32470703 175.25634766 C18.65982961 173.46328536 17.1333003 171.61392406 15.625 169.6875 C15.09261719 169.04103516 14.56023437 168.39457031 14.01171875 167.72851562 C10.24314963 163.11129926 10.24314963 163.11129926 9 160.625 C8.9906543 161.33108398 8.98130859 162.03716797 8.97167969 162.76464844 C8.91794341 165.96880545 8.83430243 169.17150757 8.75 172.375 C8.73582031 173.48617187 8.72164063 174.59734375 8.70703125 175.7421875 C8.67480469 176.81210937 8.64257812 177.88203125 8.609375 178.984375 C8.58842773 179.96889648 8.56748047 180.95341797 8.54589844 181.96777344 C7.86004679 185.30623915 6.61985103 186.51238499 4 188.625 C2 189.19140625 2 189.19140625 0 189.1875 C-0.99 189.22037109 -0.99 189.22037109 -2 189.25390625 C-5.37747651 188.19184821 -6.25790115 186.70018319 -8 183.625 C-8.62179774 179.85814037 -8.69633984 176.12481011 -8.75 172.3125 C-8.77964844 171.28576172 -8.80929687 170.25902344 -8.83984375 169.20117188 C-8.91032194 166.67570325 -8.9631266 164.15114585 -9 161.625 C-9.78503906 162.61242187 -10.57007813 163.59984375 -11.37890625 164.6171875 C-12.43926845 165.9121431 -13.50051338 167.20637625 -14.5625 168.5 C-15.33303711 169.47646484 -15.33303711 169.47646484 -16.11914062 170.47265625 C-19.76039249 174.86025167 -22.30036553 176.78161733 -28 177.625 C-30.96631177 176.43847529 -32.45475596 175.34373078 -34.375 172.8125 C-35.28732492 169.61936278 -34.90007679 167.85402548 -34 164.625 C-32.11089288 161.75354206 -29.87983503 159.21384095 -27.625 156.625 C-26.68793213 155.49698975 -26.68793213 155.49698975 -25.73193359 154.34619141 C-22.81167075 150.83608152 -19.85903042 147.43531985 -16.625 144.2109375 C-9.65355255 136.93858805 -8.13757689 131.40018448 -8.3125 121.25 C-8.45362111 117.69781144 -8.67291702 114.16481548 -9 110.625 C-16.58080838 114.72427427 -16.58080838 114.72427427 -24.0625 119 C-27 120.625 -27 120.625 -29 120.625 C-29.37511719 121.78257812 -29.75023437 122.94015625 -30.13671875 124.1328125 C-32.298539 130.59927658 -34.62499062 137.00215528 -37.02368164 143.38378906 C-37.55242989 144.80229412 -38.07286572 146.22392366 -38.58520508 147.6484375 C-39.33485545 149.72944978 -40.11155262 151.79852138 -40.89453125 153.8671875 C-41.34675049 155.0929248 -41.79896973 156.31866211 -42.26489258 157.58154297 C-44.37348084 161.28010232 -46.01117155 162.25727355 -50 163.625 C-56.10997963 162.70850305 -56.10997963 162.70850305 -58.4375 159.875 C-59.98585627 153.68157493 -58.2865534 148.94578393 -56 143.25 C-55.71382812 142.51394531 -55.42765625 141.77789062 -55.1328125 141.01953125 C-54.43085139 139.21783107 -53.71665595 137.42090568 -53 135.625 C-53.50861572 135.92792969 -54.01723145 136.23085938 -54.54125977 136.54296875 C-56.87269699 137.9195412 -59.21715607 139.2722685 -61.5625 140.625 C-62.36236328 141.10195313 -63.16222656 141.57890625 -63.98632812 142.0703125 C-68.83886604 144.84319131 -72.25052581 146.34460213 -78 145.625 C-80.375 144.5 -80.375 144.5 -82 142.625 C-83.10478485 139.23699313 -83.37779163 137.46393942 -81.90234375 134.1875 C-79.52923093 130.99086343 -77.0560222 129.50208389 -73.625 127.5 C-72.50351563 126.83742188 -71.38203125 126.17484375 -70.2265625 125.4921875 C-69.16179687 124.87601562 -68.09703125 124.25984375 -67 123.625 C-65.33175688 122.62763213 -63.66446242 121.6286646 -62 120.625 C-62.55461914 120.51953857 -63.10923828 120.41407715 -63.68066406 120.30541992 C-66.20603879 119.81877567 -68.72789866 119.31582211 -71.25 118.8125 C-72.12269531 118.64685547 -72.99539062 118.48121094 -73.89453125 118.31054688 C-82.23166742 116.62402696 -82.23166742 116.62402696 -85 113.625 C-86.20899436 109.54464404 -86.48799759 107.56032871 -84.5 103.75 C-81.26306463 100.99860494 -79.21006894 100.96207539 -75 100.625 C-71.37890625 100.97045898 -71.37890625 100.97045898 -67.5625 101.62109375 C-66.87873291 101.73348892 -66.19496582 101.84588409 -65.49047852 101.96168518 C-63.32520622 102.31880002 -61.1626013 102.68957937 -59 103.0625 C-56.83718226 103.43014034 -54.67395724 103.79460718 -52.50952148 104.15260315 C-50.54554985 104.47818172 -48.58326224 104.81387158 -46.62109375 105.15014648 C-41.08704369 105.87585626 -36.50587958 106.45918543 -31.59765625 103.5078125 C-30.85322266 103.06566406 -30.10878906 102.62351562 -29.34179688 102.16796875 C-28.58962891 101.70003906 -27.83746094 101.23210937 -27.0625 100.75 C-26.28326172 100.28980469 -25.50402344 99.82960938 -24.70117188 99.35546875 C-21.76921164 97.6079878 -21.76921164 97.6079878 -19 95.625 C-19 94.965 -19 94.305 -19 93.625 C-27.40060256 87.53715592 -34.78021209 82.63080345 -45.47729492 83.89404297 C-49.19441076 84.52460512 -52.87815936 85.23894759 -56.5546875 86.07470703 C-59.79332497 86.8035298 -63.03009177 87.31783801 -66.3125 87.8125 C-67.29734375 87.96460938 -68.2821875 88.11671875 -69.296875 88.2734375 C-78.89117417 89.52125098 -78.89117417 89.52125098 -83.5 87.5625 C-85.74126511 84.66753257 -85.87336669 82.23404929 -86 78.625 C-84.89791992 75.22691974 -84.07902124 74.67768083 -81 72.625 C-79.00708008 72.12255859 -79.00708008 72.12255859 -76.76953125 71.7734375 C-75.96708984 71.64453125 -75.16464844 71.515625 -74.33789062 71.3828125 C-73.50451172 71.25648438 -72.67113281 71.13015625 -71.8125 71 C-70.5450293 70.79890625 -70.5450293 70.79890625 -69.25195312 70.59375 C-67.16900055 70.26424338 -65.08462573 69.94375011 -63 69.625 C-65.01432062 67.47477896 -66.93645385 65.94122451 -69.50390625 64.50390625 C-70.16197266 64.12556641 -70.82003906 63.74722656 -71.49804688 63.35742188 C-72.87563789 62.57674352 -74.25586671 61.80070182 -75.63867188 61.02929688 C-81.97207829 57.36847609 -81.97207829 57.36847609 -83 53.625 C-82.81342578 50.57762103 -82.49294043 48.4191818 -80.875 45.8125 C-77.90156823 43.92932655 -75.45939917 43.1980687 -72 43.625 C-68.13876435 45.30529927 -64.60842336 47.46510087 -61 49.625 C-58.35301255 51.00259881 -55.67921786 52.31066671 -53 53.625 C-53.433125 52.53960937 -53.86625 51.45421875 -54.3125 50.3359375 C-54.87552857 48.89083083 -55.43799916 47.44550667 -56 46 C-56.28617188 45.28714844 -56.57234375 44.57429688 -56.8671875 43.83984375 C-58.48235682 39.6480948 -59.55056026 36.19062166 -59 31.625 C-56.54405875 28.30225596 -55.0743356 26.84881992 -51 26 C-46.92197121 26.84958933 -45.67667463 28.45353503 -43 31.625 C-41.72058474 34.22592183 -40.85430082 36.91339871 -39.9765625 39.671875 C-39.42546416 41.25600583 -38.87200019 42.83931529 -38.31640625 44.421875 C-37.46566137 46.88771729 -36.631444 49.35480799 -35.83837891 51.83984375 C-32.45919583 62.3146828 -29.34450059 68.87552578 -19.38638306 74.17889404 C-15.99985863 75.83835407 -12.5204899 77.27608232 -9 78.625 C-7.11826264 63.5630495 -7.11826264 63.5630495 -12.37768555 50.06689453 C-14.32330221 48.02692688 -16.33492403 46.08079679 -18.41259766 44.17578125 C-21.2565529 41.39743556 -23.59380193 38.21836371 -26 35.0625 C-26.89522274 33.91488802 -27.79101959 32.76772355 -28.6875 31.62109375 C-29.450625 30.63238281 -30.21375 29.64367187 -31 28.625 C-31.58007812 27.8928125 -32.16015625 27.160625 -32.7578125 26.40625 C-34.56668826 23.81239043 -34.87183838 21.7649598 -35 18.625 C-32.86956522 14.05978261 -32.86956522 14.05978261 -30 12.625 C-26.6875 12.25 -26.6875 12.25 -23 12.625 C-19.32457375 15.89270212 -16.27160306 19.61689471 -13.1875 23.4375 C-12.00220703 24.90123047 -12.00220703 24.90123047 -10.79296875 26.39453125 C-10.20128906 27.13058594 -9.60960937 27.86664063 -9 28.625 C-8.99589111 27.9544458 -8.99178223 27.2838916 -8.98754883 26.59301758 C-8.95455357 23.54029609 -8.8839038 20.4895547 -8.8125 17.4375 C-8.80379883 15.85485352 -8.80379883 15.85485352 -8.79492188 14.24023438 C-8.57232174 6.39976281 -8.57232174 6.39976281 -5.63671875 2.42578125 C-3 0.625 -3 0.625 0 0 Z " fill="#B1DBFC" transform="translate(310,323.375)"/>
<path d="M0 0 C2.1796875 1.50390625 2.1796875 1.50390625 4 4 C4.44888571 6.86596259 4.69425198 9.3815111 4.75 12.25 C4.77964844 12.99507812 4.80929688 13.74015625 4.83984375 14.5078125 C4.9102343 16.33796672 4.95741832 18.16898769 5 20 C5.556875 19.278125 6.11375 18.55625 6.6875 17.8125 C12.73809393 10.45366955 12.73809393 10.45366955 16.23828125 9.1953125 C19.47920003 9.08545085 21.74585455 9.84751273 24.5 11.5 C26.59940615 14.99901024 26.81155275 18.07850123 26 22 C24.1884717 25.15421635 21.86745482 27.74397866 19.4375 30.4375 C18.79796387 31.18829834 18.15842773 31.93909668 17.49951172 32.71264648 C14.91506133 35.74297544 12.29983716 38.69404372 9.51171875 41.5390625 C5.03039681 46.34511791 4.45976958 50.17662373 4.5625 56.5625 C4.68701116 59.04349729 4.8410922 61.52082721 5 64 C12.22310356 60.94859838 18.72972622 58.04394754 22.05581665 50.57580566 C23.35288383 47.16907222 24.48878505 43.73286035 25.5625 40.25 C26.25792876 38.12818087 26.9674969 36.01249989 27.6938324 33.90106201 C28.34132918 32.00089972 28.9484533 30.08711854 29.55297852 28.17285156 C31.19247449 24.57796551 32.65349213 23.05752283 36 21 C40.26438773 20.92518618 42.23718151 21.35160428 45.5 24.125 C47.51284731 27.98295735 47.06492684 29.81128776 46 34 C45.08590251 36.71372692 44.07264914 39.3416956 43 42 C43.92941406 41.47148437 44.85882813 40.94296875 45.81640625 40.3984375 C47.06447351 39.72279207 48.31320762 39.04837745 49.5625 38.375 C50.17158203 38.024375 50.78066406 37.67375 51.40820312 37.3125 C54.97189963 35.42694629 56.81879259 34.97161145 60.83984375 35.6015625 C64 37 64 37 66 40 C66.54081653 44.17201319 66.59400223 46.19522279 64.0625 49.625 C60.26553452 52.56958548 56.26894833 54.81437286 52 57 C52.90363281 57.18175781 53.80726563 57.36351562 54.73828125 57.55078125 C55.91777344 57.80214844 57.09726563 58.05351562 58.3125 58.3125 C59.48425781 58.55613281 60.65601563 58.79976563 61.86328125 59.05078125 C64.91318894 59.97372966 66.16812025 60.46306688 68 63 C69.08444457 66.56317503 69.30100515 68.30293543 67.8125 71.75 C65.88604651 74.1414595 64.83280107 74.92708367 62 76 C59.62158203 75.9675293 59.62158203 75.9675293 57.0078125 75.57421875 C55.57888672 75.36829102 55.57888672 75.36829102 54.12109375 75.15820312 C53.13238281 75.00287109 52.14367187 74.84753906 51.125 74.6875 C50.14402344 74.54376953 49.16304688 74.40003906 48.15234375 74.25195312 C44.27458043 73.67892332 40.40536139 73.06771274 36.5390625 72.421875 C28.52363048 71.09008014 24.8314854 72.18699428 18.1015625 76.6875 C16 78 16 78 14 78 C14.98765572 79.01219375 15.99099154 80.00909035 17 81 C17.86238281 81.84691406 17.86238281 81.84691406 18.7421875 82.7109375 C23.12227502 86.12836842 26.57962319 87.2453542 32.08203125 86.75390625 C36.63174321 86.16095133 41.1326806 85.348298 45.63305664 84.45947266 C60.59851309 81.55436806 60.59851309 81.55436806 66.5 84.0625 C68.79606866 87.02825535 69 89.28690791 69 93 C66.91500541 96.45262718 65.60018065 97.78761723 61.765625 99.14453125 C60.60546875 99.36496094 59.4453125 99.58539063 58.25 99.8125 C56.49429688 100.16248047 56.49429688 100.16248047 54.703125 100.51953125 C53.81109375 100.67808594 52.9190625 100.83664062 52 101 C52.75925781 101.47050781 53.51851562 101.94101562 54.30078125 102.42578125 C55.29464844 103.04839844 56.28851563 103.67101562 57.3125 104.3125 C58.29863281 104.92738281 59.28476563 105.54226563 60.30078125 106.17578125 C62.52736922 107.68058094 64.33721274 108.90632435 66 111 C66.65341537 115.41055377 66.51318284 117.2906002 63.875 120.9375 C60.41438415 123.42011572 59.17599758 123.45104828 55 123 C51.7890625 121.46875 51.7890625 121.46875 48.625 119.5 C47.56539063 118.8503125 46.50578125 118.200625 45.4140625 117.53125 C44.61742187 117.0259375 43.82078125 116.520625 43 116 C43.45052734 117.08667969 43.45052734 117.08667969 43.91015625 118.1953125 C47.85930691 128.23552604 47.85930691 128.23552604 46 133 C44.375 135.375 44.375 135.375 42 137 C38.5 137.5 38.5 137.5 35 137 C31.08701036 133.96213173 29.94177788 130.7110426 28.44140625 126.07421875 C27.96892969 124.70564203 27.49424722 123.33782525 27.01757812 121.97070312 C26.28519151 119.83752639 25.56758275 117.70358341 24.88793945 115.55297852 C21.65708598 105.35339408 21.65708598 105.35339408 13.90086365 98.42695618 C11.32033403 97.13396271 8.70176628 96.01300459 6 95 C4.09448112 96.90551888 4.56668739 99.88398762 4.4375 102.4375 C4.53056808 110.83054834 7.43527595 114.11439657 13 120 C15.18947017 122.63222199 17.31181394 125.31617824 19.4375 128 C20.23559082 128.98987915 20.23559082 128.98987915 21.04980469 129.99975586 C24.83461719 134.7038246 26.32970519 136.9377487 26.20703125 143.09375 C26 145 26 145 24.9375 146.9375 C21.70198984 148.71181202 19.73152229 149.12234499 16 149 C11.48926362 146.1114734 8.10580492 142.32320376 5 138 C4.96261719 139.10859375 4.92523438 140.2171875 4.88671875 141.359375 C4.82104552 142.82294974 4.75459865 144.28648991 4.6875 145.75 C4.66494141 146.47960937 4.64238281 147.20921875 4.61914062 147.9609375 C4.4080904 152.18194194 4.11871168 155.01028613 1 158 C-1.93635415 159.08181469 -3.58072748 159.09982679 -6.625 158.375 C-9.64716529 156.62532536 -10.46389754 155.12814143 -12 152 C-12.51171875 148.66796875 -12.51171875 148.66796875 -12.6875 145.1875 C-12.78611328 143.44533203 -12.78611328 143.44533203 -12.88671875 141.66796875 C-12.94279297 140.34732422 -12.94279297 140.34732422 -13 139 C-13.74443359 139.95712891 -13.74443359 139.95712891 -14.50390625 140.93359375 C-20.02960526 147.65460526 -20.02960526 147.65460526 -24.6875 149.3125 C-28.80129125 148.92440649 -30.29070422 148.10772163 -33 145 C-34.0625 142.1875 -34.0625 142.1875 -34 139 C-31.43425705 133.92860175 -28.36469668 129.81183276 -24.625 125.5625 C-23.65188006 124.41445538 -22.67922082 123.26602008 -21.70703125 122.1171875 C-20.16766609 120.31779083 -18.62448253 118.62376726 -16.94921875 116.9453125 C-12.23474195 111.88203193 -12.49130033 106.88505956 -12.69262695 100.28198242 C-12.77496962 98.52026629 -12.88466908 96.75986444 -13 95 C-19.00556196 97.24984318 -24.98982671 99.5237571 -28.1171875 105.41943359 C-29.87730708 109.40615288 -31.2015573 113.53219819 -32.5 117.6875 C-33.20261891 119.81589408 -33.91852929 121.93845768 -34.65148926 124.05659485 C-35.30659032 125.96591525 -35.92306245 127.88836271 -36.53710938 129.8112793 C-38.18371694 133.4004551 -39.6920196 134.89792067 -43 137 C-47.0433941 137.75813639 -48.48997454 137.33639977 -51.9375 135.0625 C-54.46137155 131.31493315 -54.34278346 129.61181289 -53.59765625 125.29296875 C-52.73414336 121.98001406 -51.50459612 119.07460946 -50 116 C-50.85722656 116.51691406 -51.71445313 117.03382813 -52.59765625 117.56640625 C-53.74105469 118.22511719 -54.88445312 118.88382812 -56.0625 119.5625 C-57.18785156 120.22378906 -58.31320313 120.88507813 -59.47265625 121.56640625 C-63.56835223 123.23099144 -65.75506752 123.04042463 -70 122 C-71.9375 120.9375 -71.9375 120.9375 -73 119 C-73.62077476 114.18899563 -73.86941467 112.15921956 -70.9375 108.25 C-62.77777778 102 -62.77777778 102 -59 102 C-59 101.34 -59 100.68 -59 100 C-60.21236328 99.97873047 -60.21236328 99.97873047 -61.44921875 99.95703125 C-70.15543908 99.56845447 -70.15543908 99.56845447 -74.25 96.8125 C-76.34969675 93.43798736 -76.73155821 91.9016438 -76 88 C-74.625 85.125 -74.625 85.125 -72 83 C-63.12277716 81.68957899 -53.71691072 84.29502823 -45.07617188 86.10546875 C-37.2042436 87.48807372 -32.85771849 86.76572987 -26.12475586 82.36962891 C-24 81 -24 81 -22 81 C-23.22580984 77.32257047 -24.32295655 76.81557648 -27.5625 74.8125 C-28.38878906 74.28269531 -29.21507812 73.75289063 -30.06640625 73.20703125 C-38.81940615 69.6055972 -50.03250831 73.27420178 -58.99804688 74.75390625 C-60.20912109 74.94082031 -61.42019531 75.12773437 -62.66796875 75.3203125 C-64.31188599 75.58739014 -64.31188599 75.58739014 -65.98901367 75.85986328 C-69.30606293 76.01424472 -71.10610684 75.59669628 -74 74 C-76.48038907 70.2794164 -76.46337203 68.40203429 -76 64 C-72.98061463 60.01588418 -70.05301827 59.21060365 -65.25 58.25 C-64.07953125 58.00765625 -62.9090625 57.7653125 -61.703125 57.515625 C-60.81109375 57.34546875 -59.9190625 57.1753125 -59 57 C-59.84304687 56.51789063 -60.68609375 56.03578125 -61.5546875 55.5390625 C-62.65039062 54.90742188 -63.74609375 54.27578125 -64.875 53.625 C-65.96554688 52.99851562 -67.05609375 52.37203125 -68.1796875 51.7265625 C-71 50 -71 50 -73 48 C-73.30078125 45.94140625 -73.30078125 45.94140625 -73.3125 43.5625 C-73.33763672 42.38880859 -73.33763672 42.38880859 -73.36328125 41.19140625 C-73 39 -73 39 -71.85546875 37.27734375 C-69.17978059 35.43534369 -67.2440463 35.13023544 -64 35 C-60.7890625 36.21484375 -60.7890625 36.21484375 -57.625 37.9375 C-56.56539062 38.50339844 -55.50578125 39.06929688 -54.4140625 39.65234375 C-53.61742188 40.09707031 -52.82078125 40.54179687 -52 41 C-51.83249517 37.97360926 -51.83249517 37.97360926 -53 35.1875 C-54.05646701 31.82001141 -54.45636547 29.49880191 -54 26 C-51.93104835 23.05572265 -50.49090073 22.15667045 -47.0625 21.0625 C-43.29897463 20.98569336 -41.99090627 21.76148203 -39 24 C-37.57788086 26.50854492 -37.57788086 26.50854492 -36.46484375 29.48046875 C-36.04783203 30.56263672 -35.63082031 31.64480469 -35.20117188 32.75976562 C-34.78416016 33.89091797 -34.36714844 35.02207031 -33.9375 36.1875 C-32.31691701 40.46851938 -30.68089009 44.74226368 -29 49 C-28.68272949 49.80646973 -28.36545898 50.61293945 -28.03857422 51.44384766 C-25.80468415 56.53051555 -23.38561867 58.53490304 -18.25 61 C-17.07953125 61.5775 -15.9090625 62.155 -14.703125 62.75 C-13.36507812 63.36875 -13.36507812 63.36875 -12 64 C-11.36585115 52.09631384 -11.36585115 52.09631384 -16.55004883 41.76293945 C-18.49784562 39.64656755 -20.48375792 37.57630339 -22.51464844 35.53955078 C-24.92286173 33.04346383 -27.00683033 30.3731719 -29.125 27.625 C-29.84945312 26.70976562 -30.57390625 25.79453125 -31.3203125 24.8515625 C-33.30932252 21.47487108 -33.80355771 18.89686691 -34 15 C-32.5625 12.0625 -32.5625 12.0625 -30 10 C-26.74091282 9.48268457 -25.0674847 9.23465951 -22 10 C-18.40420654 12.86029025 -15.86055036 16.42431205 -13 20 C-12.96261719 19.04738281 -12.92523438 18.09476562 -12.88671875 17.11328125 C-12.82097656 15.85902344 -12.75523437 14.60476563 -12.6875 13.3125 C-12.60048828 11.45044922 -12.60048828 11.45044922 -12.51171875 9.55078125 C-11.98646456 5.90607849 -11.19430569 3.92032287 -9 1 C-5.90826248 -0.54586876 -3.40570448 -0.29359521 0 0 Z " fill="#B1DBFC" transform="translate(147,243)"/>
<path d="M0 0 C0.82717529 0.00088623 1.65435059 0.00177246 2.5065918 0.00268555 C12.17804919 0.18750242 20.26440943 2.96837724 28.8125 7.375 C26.58974194 9.7169596 24.22672261 11.59360503 21.625 13.5 C11.27462727 21.58570447 3.55280609 32.30054186 0.8125 45.375 C0.65288567 48.9468139 0.5167332 52.51288778 0.47070312 56.08789062 C0.33135966 59.77239121 0.0130661 62.00957836 -1.7890625 65.29296875 C-4.85889982 67.95782753 -7.27870169 68.45327624 -11.25 69.25 C-22.66901197 71.89517581 -31.3185712 77.7958816 -38.1875 87.375 C-44.95587188 98.70062975 -46.37253397 112.06307955 -43.3515625 124.9375 C-38.82073354 136.61426726 -31.19220725 144.58478034 -20.1875 150.375 C-18.53208416 151.06913299 -16.86838674 151.74504605 -15.1875 152.375 C-15.1875 152.705 -15.1875 153.035 -15.1875 153.375 C-21.64276671 153.50299891 -28.09769989 153.58984705 -34.55395508 153.6496582 C-36.74483468 153.67462228 -38.93563256 153.70860593 -41.1262207 153.75219727 C-59.70162117 154.11226774 -73.7998806 152.19895751 -87.9375 139.0625 C-91.55204483 135.25551413 -93.97604368 131.11383498 -96.1875 126.375 C-96.50847656 125.73433594 -96.82945312 125.09367187 -97.16015625 124.43359375 C-101.11567695 115.03233293 -100.77382089 102.20550426 -97.125 92.8125 C-91.35702519 81.06532877 -82.52585332 72.00188249 -70.1875 67.375 C-66.46841106 66.50382685 -62.76423466 65.77308088 -58.99609375 65.1484375 C-57.60583984 64.76558594 -57.60583984 64.76558594 -56.1875 64.375 C-55.28484809 61.66704427 -55.00945398 59.78692684 -54.86328125 56.98046875 C-53.82720583 40.83120621 -50.63053682 28.51684823 -39.1875 16.375 C-38.59453125 15.74078125 -38.0015625 15.1065625 -37.390625 14.453125 C-27.31477545 4.72174894 -13.80253626 -0.02681749 0 0 Z " fill="#B1DBFB" transform="translate(315.1875,65.625)"/>
<path d="M0 0 C5.09661745 2.9358842 9.38285774 7.37274086 11.1640625 13.0703125 C12.35272973 19.31081544 12.04292961 24.67812804 8.88671875 30.265625 C5.25044883 35.33081038 0.72523292 38.86179877 -5.4453125 40.12109375 C-11.97013021 40.7628791 -16.84498051 39.60526976 -22.4453125 36.12109375 C-26.39511596 32.53559255 -29.21468654 28.43933389 -29.74609375 23.09765625 C-29.77353327 15.24995331 -29.37388538 10.52457034 -24.1328125 4.43359375 C-17.27042369 -1.47125244 -8.71218223 -3.1313754 0 0 Z " fill="#DEEAFA" transform="translate(188.4453125,464.87890625)"/>
<path d="M0 0 C3.8770225 3.34833762 6.20455054 6.54070188 7.16796875 11.546875 C7.55503415 17.61438668 5.65437098 21.79113904 1.75 26.375 C-2.05730182 29.56490152 -6.33291753 30.51108162 -11.25 30.375 C-17.47324536 29.19235374 -20.66971028 26.47420051 -24.25 21.375 C-26.22561241 17.42377519 -25.68248694 12.68159535 -25.25 8.375 C-22.68202455 2.94274423 -18.86008164 -0.06063129 -13.375 -2.4375 C-8.34360705 -2.88144644 -4.45902885 -2.22951443 0 0 Z " fill="#B3DCFC" transform="translate(286.25,256.625)"/>
<path d="M0 0 C4.10270391 2.31786618 6.37522034 4.9093195 7.75 9.4375 C8.5179761 14.4853429 8.36201836 18.21346329 6.0625 22.8125 C2.01002063 27.41261172 -1.21870787 30.1403145 -7.4375 30.75 C-13.52295592 30.25119214 -17.63182902 28.2631288 -21.6875 23.6875 C-24.26581102 18.32461308 -24.97121493 13.88781325 -23.1875 8.25 C-21.39559712 4.05513058 -18.98056342 2.00226235 -15.25 -0.5625 C-9.88549101 -2.35066966 -5.14615476 -2.25084152 0 0 Z " fill="#B3DCFB" transform="translate(129.25,425.5625)"/>
<path d="M0 0 C0.33 0.66 0.66 1.32 1 2 C0.0925 2.556875 -0.815 3.11375 -1.75 3.6875 C-5.83777047 6.59610591 -8.40501434 9.21504302 -10 14 C-10.49932181 20.65442341 -10.70705898 26.21698799 -7 32 C-6.67 32.99 -6.34 33.98 -6 35 C-4.6846659 35.70151152 -3.34882408 36.36525925 -2 37 C-0.25 38.625 -0.25 38.625 1 40 C-5.7672543 42.25575143 -11.70090839 41.31330833 -17.953125 38.2734375 C-22.24034085 35.60620016 -25.11940596 31.66849222 -27 27 C-27.66326407 20.33290401 -28.07304042 13.61798679 -24 8 C-16.8915282 -0.26119696 -10.36087724 -0.41504998 0 0 Z " fill="#B3DBFC" transform="translate(186,464)"/>
<path d="M0 0 C3.83669597 2.02693372 6.99766408 4.10071426 9 8 C10.10280384 12.47105742 10.36739202 15.9182346 8.875 20.3125 C6.44785585 23.79140662 3.7924148 26.1037926 0 28 C-6.40515061 28.54280937 -9.80885186 27.8679143 -15 24 C-18.08230587 19.62511425 -18.90287269 15.25492197 -18 10 C-16.61471182 6.07110358 -14.69476107 3.48949075 -11.25 1.0625 C-7.32262194 -0.22145052 -4.08505594 -0.74199619 0 0 Z " fill="#B3DBFB" transform="translate(368,286)"/>
<path d="M0 0 C3.28217502 1.25273856 4.35348132 3.51013055 6.0546875 6.46875 C7.71885056 10.34742926 7.94691965 13.66676017 7.046875 17.78125 C5.45709954 21.48655345 3.88172796 24.99947413 0.0390625 26.63671875 C-1.953125 26.78125 -1.953125 26.78125 -4.578125 24.59375 C-8.58048406 19.85411427 -9.4475046 16.4642597 -9.34765625 10.328125 C-8.69410052 6.10913158 -6.77247595 3.93623797 -3.953125 0.78125 C-1.953125 -0.21875 -1.953125 -0.21875 0 0 Z " fill="#DEEBFA" transform="translate(285.953125,257.21875)"/>
<path d="M0 0 C3.71688697 1.19471367 5.44291059 3.46588958 7.234375 6.87109375 C8.68450888 10.90335376 8.69298791 14.80049328 8 19 C5.90702755 23.11119588 3.68141909 25.34721271 0 28 C-3.71479492 24.777984 -6.6373401 21.92507821 -7.5703125 16.97265625 C-7.66760136 11.35074979 -7.31816249 7.67301123 -4 3 C-1.8125 1.1875 -1.8125 1.1875 0 0 Z " fill="#DEEAFA" transform="translate(129,426)"/>
<path d="M0 0 C2.93364327 1.01160113 3.99671209 1.99535158 5.8125 4.5625 C7.34953431 9.01180985 7.26324148 12.47892523 6 17 C3.9375 20.0625 3.9375 20.0625 2 22 C-0.58484592 21.0195412 -1.94843031 20.06077857 -3.75 17.9375 C-5.47620025 13.88092942 -5.8529282 10.34079531 -5 6 C-3.56360781 3.55613828 -2.05588014 2.00448313 0 0 Z " fill="#DEEAFA" transform="translate(371,289)"/>
<path d="M0 0 C0.66 0.33 1.32 0.66 2 1 C-2.62 5.62 -7.24 10.24 -12 15 C-12 10.39852874 -9.10228152 8.19311408 -6 5 C-4.05341967 3.24193983 -2.06456557 1.62215867 0 0 Z " fill="#C1E1FC" transform="translate(119,33)"/>
<path d="M0 0 C0.66 0.33 1.32 0.66 2 1 C-0.31 3.31 -2.62 5.62 -5 8 C-5 5 -5 5 -2.5 2.3125 C-1.675 1.549375 -0.85 0.78625 0 0 Z " fill="#BEE2FC" transform="translate(357,287)"/>
</svg>
