<?xml version="1.0" encoding="UTF-8"?>
<svg version="1.1" xmlns="http://www.w3.org/2000/svg" width="512" height="512">
<path d="M0 0 C2.00775748 1.76393685 3.9737018 3.56119487 5.9375 5.375 C6.61167969 5.97957031 7.28585937 6.58414062 7.98046875 7.20703125 C21.40146615 19.82952537 30.52128615 36.9560208 35.9375 54.375 C37.10023438 54.40078125 38.26296875 54.4265625 39.4609375 54.453125 C66.80918213 55.31469124 92.05328185 63.26149072 112.9375 81.375 C113.74574219 82.03886719 114.55398438 82.70273438 115.38671875 83.38671875 C134.80957382 99.88242455 147.95539417 124.48939776 151.73828125 149.66796875 C152.1723829 155.56664415 152.08103088 161.46631202 151.9375 167.375 C152.48535156 167.38917969 153.03320312 167.40335938 153.59765625 167.41796875 C174.56810032 168.67960522 192.83999618 180.64416622 206.64599609 195.84521484 C218.74025159 210.17084905 224.55155612 228.68497066 224.375 247.1875 C224.36597656 248.32751465 224.35695313 249.4675293 224.34765625 250.64208984 C223.97277 268.94122469 217.40502875 286.73786277 204.9375 300.375 C204.13699219 301.26703125 203.33648437 302.1590625 202.51171875 303.078125 C193.11823511 313.0289644 181.97145298 320.06083778 168.9375 324.375 C167.89665772 324.74625047 167.89665772 324.74625047 166.83478832 325.12500095 C155.75630396 328.51052576 144.26988227 327.80321072 132.80395508 327.77905273 C130.35688974 327.78476139 127.90982707 327.79172756 125.46276855 327.79985046 C119.52703457 327.81589021 113.59139849 327.81789278 107.65565441 327.81263756 C102.82484015 327.80858035 97.99405704 327.81005774 93.16324425 327.81538582 C92.12812199 327.81650845 92.12812199 327.81650845 91.07208818 327.81765376 C89.66971701 327.81918541 88.26734585 327.82072375 86.8649747 327.82226873 C73.73886004 327.83596942 60.61280512 327.83057399 47.48669185 327.81908352 C35.51317304 327.80916115 23.53980897 327.82207885 11.56631402 327.84601771 C-0.76372931 327.87048128 -13.09370078 327.87999837 -25.42376786 327.87336498 C-32.33178953 327.86988786 -39.2396924 327.87200397 -46.14769554 327.88961601 C-52.64934833 327.90598796 -59.15077983 327.90104402 -65.65242767 327.88231087 C-68.02704375 327.87864587 -70.40168196 327.8816718 -72.77627754 327.89219666 C-103.09191814 328.01621482 -127.9255258 320.19979967 -150.125 298.75 C-162.96531194 285.92195392 -171.15587224 269.00078523 -175.0625 251.375 C-175.0625 250.055 -175.0625 248.735 -175.0625 247.375 C-175.91255615 247.39594727 -176.7626123 247.41689453 -177.63842773 247.43847656 C-208.9409491 248.10786796 -234.87442886 244.0417355 -258.69140625 221.7109375 C-277.15797035 203.51817748 -287.88716835 181.01705487 -288.53540039 155.05615234 C-288.74466328 126.63033416 -280.30121673 102.9183128 -260.0625 82.375 C-237.49201365 59.76677036 -210.6275188 54.78389657 -180.0625 54.375 C-179.7221875 53.38242188 -179.381875 52.38984375 -179.03125 51.3671875 C-173.93180819 36.90413092 -167.21565769 25.01579985 -157.0625 13.375 C-156.52367187 12.69179688 -155.98484375 12.00859375 -155.4296875 11.3046875 C-142.14465119 -5.18477968 -121.87694581 -15.46841571 -102.0625 -21.625 C-100.91136719 -21.98722656 -99.76023438 -22.34945313 -98.57421875 -22.72265625 C-65.15078498 -31.16688452 -26.23001509 -22.33870711 0 0 Z " fill="#9FCDF0" transform="translate(288.0625,24.625)"/>
<path d="M0 0 C2.00775748 1.76393685 3.9737018 3.56119487 5.9375 5.375 C6.61167969 5.97957031 7.28585937 6.58414062 7.98046875 7.20703125 C21.71382629 20.12330115 30.81193306 37.44839403 35.9375 55.375 C35.10895508 55.47204224 35.10895508 55.47204224 34.26367188 55.57104492 C2.31482177 59.4256856 -26.33859114 71.57592281 -47.11938477 97.13696289 C-56.23145638 108.8428655 -62.26940526 121.39514035 -67.0625 135.375 C-67.92862915 135.39687378 -67.92862915 135.39687378 -68.81225586 135.41918945 C-101.25631463 136.32853566 -127.85871527 143.04584645 -151.203125 167.27734375 C-154.57146628 171.07734221 -157.38730457 175.06089537 -160.0625 179.375 C-160.42520996 179.95862305 -160.78791992 180.54224609 -161.16162109 181.14355469 C-174.44903485 202.98603157 -176.08807468 226.4760128 -174.0625 251.375 C-174.3925 250.055 -174.7225 248.735 -175.0625 247.375 C-175.91255615 247.39594727 -176.7626123 247.41689453 -177.63842773 247.43847656 C-208.9409491 248.10786796 -234.87442886 244.0417355 -258.69140625 221.7109375 C-277.15797035 203.51817748 -287.88716835 181.01705487 -288.53540039 155.05615234 C-288.74466328 126.63033416 -280.30121673 102.9183128 -260.0625 82.375 C-237.49201365 59.76677036 -210.6275188 54.78389657 -180.0625 54.375 C-179.7221875 53.38242188 -179.381875 52.38984375 -179.03125 51.3671875 C-173.93180819 36.90413092 -167.21565769 25.01579985 -157.0625 13.375 C-156.52367187 12.69179688 -155.98484375 12.00859375 -155.4296875 11.3046875 C-142.14465119 -5.18477968 -121.87694581 -15.46841571 -102.0625 -21.625 C-100.91136719 -21.98722656 -99.76023438 -22.34945313 -98.57421875 -22.72265625 C-65.15078498 -31.16688452 -26.23001509 -22.33870711 0 0 Z " fill="#378AC9" transform="translate(288.0625,24.625)"/>
<path d="M0 0 C10.58499094 7.07338257 16.12444167 20.37332501 20 32 C21.20479422 48.64986109 21.20479422 48.64986109 16 55 C11.1887208 60.04230096 6.84284349 63.60515587 -0.26953125 64.3359375 C-8.78576573 64.42983204 -14.67595494 64.1177288 -20.96484375 58.12890625 C-27.37285607 51.19672114 -28.64714822 45.35711461 -28.375 35.984375 C-27.5040901 23.08246691 -19.04241217 10.29392689 -10.25 1.1875 C-6.94856479 -0.55492414 -3.5920898 -0.84952589 0 0 Z " fill="#9DCCF0" transform="translate(264,376)"/>
<path d="M0 0 C10.58499094 7.07338257 16.12444167 20.37332501 20 32 C21.20479422 48.64986109 21.20479422 48.64986109 16 55 C11.1887208 60.04230096 6.84284349 63.60515587 -0.26953125 64.3359375 C-8.78576573 64.42983204 -14.67595494 64.1177288 -20.96484375 58.12890625 C-27.37285607 51.19672114 -28.64714822 45.35711461 -28.375 35.984375 C-27.5040901 23.08246691 -19.04241217 10.29392689 -10.25 1.1875 C-6.94856479 -0.55492414 -3.5920898 -0.84952589 0 0 Z " fill="#9DCCF0" transform="translate(204,448)"/>
<path d="M0 0 C10.58499094 7.07338257 16.12444167 20.37332501 20 32 C21.20479422 48.64986109 21.20479422 48.64986109 16 55 C11.1887208 60.04230096 6.84284349 63.60515587 -0.26953125 64.3359375 C-8.78576573 64.42983204 -14.67595494 64.1177288 -20.96484375 58.12890625 C-27.37285607 51.19672114 -28.64714822 45.35711461 -28.375 35.984375 C-27.5040901 23.08246691 -19.04241217 10.29392689 -10.25 1.1875 C-6.94856479 -0.55492414 -3.5920898 -0.84952589 0 0 Z " fill="#9DCCF0" transform="translate(396,424)"/>
<path d="M0 0 C10.58499094 7.07338257 16.12444167 20.37332501 20 32 C21.20479422 48.64986109 21.20479422 48.64986109 16 55 C11.1887208 60.04230096 6.84284349 63.60515587 -0.26953125 64.3359375 C-8.78576573 64.42983204 -14.67595494 64.1177288 -20.96484375 58.12890625 C-27.37285607 51.19672114 -28.64714822 45.35711461 -28.375 35.984375 C-27.5040901 23.08246691 -19.04241217 10.29392689 -10.25 1.1875 C-6.94856479 -0.55492414 -3.5920898 -0.84952589 0 0 Z " fill="#9DCCF0" transform="translate(88,320)"/>
<path d="M0 0 C6.90466328 3.76617997 10.53489344 10.78760343 13 18 C13.90119073 23.69607576 13.81696969 28.24037297 11.375 33.5 C6.80134327 38.3143755 3.6912538 40.25156236 -3 40.5 C-9.67721152 40.25208373 -12.75852915 38.30045692 -17.375 33.5625 C-20.29029968 27.17126608 -20.26813375 20.53105793 -17.89453125 13.921875 C-14.40359952 7.07103846 -8.85720581 -2.21430145 0 0 Z " fill="#9DCCF0" transform="translate(323,472)"/>
<path d="M0 0 C6.90466328 3.76617997 10.53489344 10.78760343 13 18 C13.90119073 23.69607576 13.81696969 28.24037297 11.375 33.5 C6.80134327 38.3143755 3.6912538 40.25156236 -3 40.5 C-9.67721152 40.25208373 -12.75852915 38.30045692 -17.375 33.5625 C-20.29029968 27.17126608 -20.26813375 20.53105793 -17.89453125 13.921875 C-14.40359952 7.07103846 -8.85720581 -2.21430145 0 0 Z " fill="#9DCCF0" transform="translate(115,424)"/>
<path d="M0 0 C6.90466328 3.76617997 10.53489344 10.78760343 13 18 C13.90119073 23.69607576 13.81696969 28.24037297 11.375 33.5 C6.80134327 38.3143755 3.6912538 40.25156236 -3 40.5 C-9.67721152 40.25208373 -12.75852915 38.30045692 -17.375 33.5625 C-20.29029968 27.17126608 -20.26813375 20.53105793 -17.89453125 13.921875 C-14.40359952 7.07103846 -8.85720581 -2.21430145 0 0 Z " fill="#9DCCF0" transform="translate(443,376)"/>
<path d="M0 0 C6.90466328 3.76617997 10.53489344 10.78760343 13 18 C13.90119073 23.69607576 13.81696969 28.24037297 11.375 33.5 C6.80134327 38.3143755 3.6912538 40.25156236 -3 40.5 C-9.67721152 40.25208373 -12.75852915 38.30045692 -17.375 33.5625 C-20.29029968 27.17126608 -20.26813375 20.53105793 -17.89453125 13.921875 C-14.40359952 7.07103846 -8.85720581 -2.21430145 0 0 Z " fill="#9DCCF0" transform="translate(347,376)"/>
<path d="M0 0 C6.90466328 3.76617997 10.53489344 10.78760343 13 18 C13.90119073 23.69607576 13.81696969 28.24037297 11.375 33.5 C6.80134327 38.3143755 3.6912538 40.25156236 -3 40.5 C-9.67721152 40.25208373 -12.75852915 38.30045692 -17.375 33.5625 C-20.29029968 27.17126608 -20.26813375 20.53105793 -17.89453125 13.921875 C-14.40359952 7.07103846 -8.85720581 -2.21430145 0 0 Z " fill="#9DCCF0" transform="translate(163,376)"/>
</svg>
